<svg width="51" height="51" viewBox="0 0 51 51" fill="none" xmlns="http://www.w3.org/2000/svg">
<rect width="50.8697" height="50.8697" rx="25.4348" fill="#E6E9EF"/>
<path fill-rule="evenodd" clip-rule="evenodd" d="M23.4697 16.0303C22.8681 16.0303 22.3071 16.2906 21.9055 16.7269C21.506 17.1609 21.2926 17.7351 21.2926 18.3204V18.8764H19.5396H16.9196C16.4407 18.8764 16.0525 19.2646 16.0525 19.7435C16.0525 20.2224 16.4407 20.6106 16.9196 20.6106H18.6725V32.5512C18.6725 33.1365 18.8859 33.7108 19.2854 34.1448C19.6871 34.5811 20.248 34.8414 20.8497 34.8414H30.0198C30.6215 34.8414 31.1824 34.5811 31.5841 34.1448C31.9836 33.7108 32.1969 33.1365 32.1969 32.5512V20.6106H33.9499C34.4287 20.6106 34.817 20.2224 34.817 19.7435C34.817 19.2646 34.4287 18.8764 33.9499 18.8764H31.3298H29.5769V18.3204C29.5769 17.7351 29.3635 17.1609 28.9641 16.7269C28.5624 16.2906 28.0015 16.0303 27.3998 16.0303H23.4697ZM22.1565 20.6106C22.1576 20.6106 22.1586 20.6106 22.1597 20.6106H28.7098C28.7109 20.6106 28.7119 20.6106 28.7131 20.6106H30.4627V32.5512C30.4627 32.7208 30.4001 32.8704 30.3082 32.9702C30.2186 33.0676 30.113 33.1072 30.0198 33.1072H20.8497C20.7564 33.1072 20.6509 33.0676 20.5613 32.9702C20.4694 32.8704 20.4067 32.7208 20.4067 32.5512V20.6106H22.1565ZM27.8427 18.8764V18.3204C27.8427 18.1509 27.7801 18.0013 27.6882 17.9014C27.5986 17.804 27.493 17.7645 27.3998 17.7645H23.4697C23.3765 17.7645 23.271 17.804 23.1813 17.9014C23.0895 18.0013 23.0268 18.1509 23.0268 18.3204V18.8764H27.8427Z" fill="#323338"/>
</svg>
