<svg width="13" height="13" viewBox="0 0 13 13" fill="none" xmlns="http://www.w3.org/2000/svg">
<path fill-rule="evenodd" clip-rule="evenodd" d="M6.5 0C4.77609 0 3.12279 0.684816 1.9038 1.9038C0.684816 3.12279 0 4.77609 0 6.5C0 8.22388 0.684816 9.87724 1.9038 11.0962C3.12279 12.3151 4.77609 13 6.5 13C8.22388 13 9.87724 12.3151 11.0962 11.0962C12.3151 9.87724 13 8.22388 13 6.5C13 4.77609 12.3151 3.12279 11.0962 1.9038C9.87724 0.684816 8.22388 0 6.5 0ZM2.76559 2.76559C3.75602 1.77517 5.09932 1.21875 6.5 1.21875C7.90067 1.21875 9.24398 1.77517 10.2344 2.76559C11.2249 3.75602 11.7812 5.09932 11.7812 6.5C11.7812 7.90067 11.2249 9.24398 10.2344 10.2344C9.24398 11.2249 7.90067 11.7812 6.5 11.7812C5.09932 11.7812 3.75602 11.2249 2.76559 10.2344C1.77517 9.24398 1.21875 7.90067 1.21875 6.5C1.21875 5.09932 1.77517 3.75602 2.76559 2.76559ZM7.50214 3.75104C7.50214 3.41449 7.2293 3.14166 6.89276 3.14166C6.55623 3.14166 6.28336 3.41449 6.28336 3.75104V6.89268C6.28336 7.22922 6.55623 7.50206 6.89276 7.50206H9.24901C9.58555 7.50206 9.85839 7.22922 9.85839 6.89268C9.85839 6.55614 9.58555 6.28333 9.24901 6.28333H7.50214V3.75104Z" fill="#676879"/>
</svg>
