<svg width="40" height="40" viewBox="0 0 40 40" fill="none" xmlns="http://www.w3.org/2000/svg">
<g opacity="0.1">
<rect width="40" height="40" rx="20" fill="#2C2D31"/>
</g>
<path fill-rule="evenodd" clip-rule="evenodd" d="M18.4534 12.6044C17.9803 12.6044 17.5393 12.809 17.2234 13.1522C16.9093 13.4934 16.7415 13.945 16.7415 14.4052V14.8424H15.3631H13.3029C12.9263 14.8424 12.6211 15.1476 12.6211 15.5242C12.6211 15.9007 12.9263 16.206 13.3029 16.206H14.6813V25.5951C14.6813 26.0554 14.8491 26.507 15.1632 26.8482C15.4791 27.1913 15.9201 27.396 16.3932 27.396H23.6039C24.077 27.396 24.5181 27.1913 24.8339 26.8482C25.1481 26.507 25.3158 26.0554 25.3158 25.5951V16.206H26.6942C27.0708 16.206 27.376 15.9007 27.376 15.5242C27.376 15.1476 27.0708 14.8424 26.6942 14.8424H24.634H23.2557V14.4052C23.2557 13.945 23.0878 13.4934 22.7738 13.1522C22.4579 12.809 22.0168 12.6044 21.5438 12.6044H18.4534ZM17.4208 16.206C17.4217 16.206 17.4225 16.206 17.4233 16.206H22.5738C22.5747 16.206 22.5755 16.206 22.5764 16.206H23.9522V25.5951C23.9522 25.7285 23.9029 25.8461 23.8307 25.9246C23.7602 26.0012 23.6772 26.0323 23.6039 26.0323H16.3932C16.3199 26.0323 16.237 26.0012 16.1665 25.9246C16.0942 25.8461 16.0449 25.7285 16.0449 25.5951V16.206H17.4208ZM21.892 14.8424V14.4052C21.892 14.2719 21.8428 14.1542 21.7705 14.0757C21.7 13.9991 21.617 13.968 21.5438 13.968H18.4534C18.3801 13.968 18.2972 13.9991 18.2267 14.0757C18.1544 14.1542 18.1052 14.2719 18.1052 14.4052V14.8424H21.892Z" fill="#676879"/>
</svg>
