<svg width="314" height="184" viewBox="0 0 314 184" fill="none" xmlns="http://www.w3.org/2000/svg">
<g clip-path="url(#clip0)" filter="url(#filter0_d)">
<g clip-path="url(#clip1)">
<g filter="url(#filter1_d)">
<path fill-rule="evenodd" clip-rule="evenodd" d="M165 22L149 22L155.586 15.4142C156.367 14.6332 157.633 14.6332 158.414 15.4142L165 22Z" fill="#0085FF"/>
</g>
</g>
<path d="M20 30C20 25.5817 23.5817 22 28 22H286C290.418 22 294 25.5817 294 30V150C294 154.418 290.418 158 286 158H28C23.5817 158 20 154.418 20 150V30Z" fill="#0085FF"/>
<path d="M39.7188 50.625L43 59.3438L46.2734 50.625H48.8281V62H46.8594V58.25L47.0547 53.2344L43.6953 62H42.2812L38.9297 53.2422L39.125 58.25V62H37.1562V50.625H39.7188ZM52.5078 62H50.6094V53.5469H52.5078V62ZM50.4922 51.3516C50.4922 51.0599 50.5833 50.8177 50.7656 50.625C50.9531 50.4323 51.2188 50.3359 51.5625 50.3359C51.9062 50.3359 52.1719 50.4323 52.3594 50.625C52.5469 50.8177 52.6406 51.0599 52.6406 51.3516C52.6406 51.638 52.5469 51.8776 52.3594 52.0703C52.1719 52.2578 51.9062 52.3516 51.5625 52.3516C51.2188 52.3516 50.9531 52.2578 50.7656 52.0703C50.5833 51.8776 50.4922 51.638 50.4922 51.3516ZM57.5547 60.6406C58.0286 60.6406 58.4219 60.5026 58.7344 60.2266C59.0469 59.9505 59.2135 59.6094 59.2344 59.2031H61.0234C61.0026 59.7292 60.8385 60.2214 60.5312 60.6797C60.224 61.1328 59.8073 61.4922 59.2812 61.7578C58.7552 62.0234 58.1875 62.1562 57.5781 62.1562C56.3958 62.1562 55.4583 61.7734 54.7656 61.0078C54.0729 60.2422 53.7266 59.1849 53.7266 57.8359V57.6406C53.7266 56.3542 54.0703 55.3255 54.7578 54.5547C55.4453 53.7786 56.3828 53.3906 57.5703 53.3906C58.5755 53.3906 59.3932 53.6849 60.0234 54.2734C60.6589 54.8568 60.9922 55.625 61.0234 56.5781H59.2344C59.2135 56.0938 59.0469 55.6953 58.7344 55.3828C58.4271 55.0703 58.0339 54.9141 57.5547 54.9141C56.9401 54.9141 56.4661 55.138 56.1328 55.5859C55.7995 56.0286 55.6302 56.7031 55.625 57.6094V57.9141C55.625 58.8307 55.7891 59.5156 56.1172 59.9688C56.4505 60.4167 56.9297 60.6406 57.5547 60.6406ZM66.3828 55.2812C66.1328 55.2396 65.875 55.2188 65.6094 55.2188C64.7396 55.2188 64.1536 55.5521 63.8516 56.2188V62H61.9531V53.5469H63.7656L63.8125 54.4922C64.2708 53.7578 64.9062 53.3906 65.7188 53.3906C65.9896 53.3906 66.2135 53.4271 66.3906 53.5L66.3828 55.2812ZM66.4453 57.6953C66.4453 56.8672 66.6094 56.1224 66.9375 55.4609C67.2656 54.7943 67.7266 54.2839 68.3203 53.9297C68.9141 53.5703 69.5964 53.3906 70.3672 53.3906C71.5078 53.3906 72.4323 53.7578 73.1406 54.4922C73.8542 55.2266 74.2396 56.2005 74.2969 57.4141L74.3047 57.8594C74.3047 58.6927 74.1432 59.4375 73.8203 60.0938C73.5026 60.75 73.0443 61.2578 72.4453 61.6172C71.8516 61.9766 71.1641 62.1562 70.3828 62.1562C69.1901 62.1562 68.2344 61.7604 67.5156 60.9688C66.8021 60.1719 66.4453 59.112 66.4453 57.7891V57.6953ZM68.3438 57.8594C68.3438 58.7292 68.5234 59.4115 68.8828 59.9062C69.2422 60.3958 69.7422 60.6406 70.3828 60.6406C71.0234 60.6406 71.5208 60.3906 71.875 59.8906C72.2344 59.3906 72.4141 58.6589 72.4141 57.6953C72.4141 56.8411 72.2292 56.1641 71.8594 55.6641C71.4948 55.1641 70.9974 54.9141 70.3672 54.9141C69.7474 54.9141 69.2552 55.1615 68.8906 55.6562C68.526 56.1458 68.3438 56.8802 68.3438 57.8594ZM82.8125 57.8594C82.8125 59.1667 82.5156 60.2109 81.9219 60.9922C81.3281 61.7682 80.5312 62.1562 79.5312 62.1562C78.6042 62.1562 77.862 61.8516 77.3047 61.2422V65.25H75.4062V53.5469H77.1562L77.2344 54.4062C77.7917 53.7292 78.5495 53.3906 79.5078 53.3906C80.5391 53.3906 81.3464 53.776 81.9297 54.5469C82.5182 55.3125 82.8125 56.3776 82.8125 57.7422V57.8594ZM80.9219 57.6953C80.9219 56.8516 80.7526 56.1823 80.4141 55.6875C80.0807 55.1927 79.6016 54.9453 78.9766 54.9453C78.2005 54.9453 77.6432 55.2656 77.3047 55.9062V59.6562C77.6484 60.3125 78.2109 60.6406 78.9922 60.6406C79.5964 60.6406 80.0677 60.3984 80.4062 59.9141C80.75 59.4245 80.9219 58.6849 80.9219 57.6953ZM85.7969 54.4688C86.4167 53.75 87.2005 53.3906 88.1484 53.3906C89.9505 53.3906 90.8646 54.4193 90.8906 56.4766V62H88.9922V56.5469C88.9922 55.9635 88.8646 55.5521 88.6094 55.3125C88.3594 55.0677 87.9896 54.9453 87.5 54.9453C86.7396 54.9453 86.1719 55.2839 85.7969 55.9609V62H83.8984V50H85.7969V54.4688ZM91.9609 57.6953C91.9609 56.8672 92.125 56.1224 92.4531 55.4609C92.7812 54.7943 93.2422 54.2839 93.8359 53.9297C94.4297 53.5703 95.112 53.3906 95.8828 53.3906C97.0234 53.3906 97.9479 53.7578 98.6562 54.4922C99.3698 55.2266 99.7552 56.2005 99.8125 57.4141L99.8203 57.8594C99.8203 58.6927 99.6589 59.4375 99.3359 60.0938C99.0182 60.75 98.5599 61.2578 97.9609 61.6172C97.3672 61.9766 96.6797 62.1562 95.8984 62.1562C94.7057 62.1562 93.75 61.7604 93.0312 60.9688C92.3177 60.1719 91.9609 59.112 91.9609 57.7891V57.6953ZM93.8594 57.8594C93.8594 58.7292 94.0391 59.4115 94.3984 59.9062C94.7578 60.3958 95.2578 60.6406 95.8984 60.6406C96.5391 60.6406 97.0365 60.3906 97.3906 59.8906C97.75 59.3906 97.9297 58.6589 97.9297 57.6953C97.9297 56.8411 97.7448 56.1641 97.375 55.6641C97.0104 55.1641 96.513 54.9141 95.8828 54.9141C95.263 54.9141 94.7708 55.1615 94.4062 55.6562C94.0417 56.1458 93.8594 56.8802 93.8594 57.8594ZM102.688 53.5469L102.742 54.5234C103.367 53.7682 104.188 53.3906 105.203 53.3906C106.964 53.3906 107.859 54.3984 107.891 56.4141V62H105.992V56.5234C105.992 55.987 105.875 55.5911 105.641 55.3359C105.411 55.0755 105.034 54.9453 104.508 54.9453C103.742 54.9453 103.172 55.2917 102.797 55.9844V62H100.898V53.5469H102.688ZM113.055 62.1562C111.852 62.1562 110.875 61.7786 110.125 61.0234C109.38 60.263 109.008 59.2526 109.008 57.9922V57.7578C109.008 56.9141 109.169 56.1615 109.492 55.5C109.82 54.8333 110.279 54.3151 110.867 53.9453C111.456 53.5755 112.112 53.3906 112.836 53.3906C113.987 53.3906 114.875 53.7578 115.5 54.4922C116.13 55.2266 116.445 56.2656 116.445 57.6094V58.375H110.922C110.979 59.0729 111.211 59.625 111.617 60.0312C112.029 60.4375 112.544 60.6406 113.164 60.6406C114.034 60.6406 114.742 60.2891 115.289 59.5859L116.312 60.5625C115.974 61.0677 115.521 61.4609 114.953 61.7422C114.391 62.0182 113.758 62.1562 113.055 62.1562ZM112.828 54.9141C112.307 54.9141 111.885 55.0964 111.562 55.4609C111.245 55.8255 111.042 56.3333 110.953 56.9844H114.57V56.8438C114.529 56.2083 114.359 55.7292 114.062 55.4062C113.766 55.0781 113.354 54.9141 112.828 54.9141ZM122.672 53.5469L122.727 54.5234C123.352 53.7682 124.172 53.3906 125.188 53.3906C126.948 53.3906 127.844 54.3984 127.875 56.4141V62H125.977V56.5234C125.977 55.987 125.859 55.5911 125.625 55.3359C125.396 55.0755 125.018 54.9453 124.492 54.9453C123.727 54.9453 123.156 55.2917 122.781 55.9844V62H120.883V53.5469H122.672ZM128.961 57.6953C128.961 56.8672 129.125 56.1224 129.453 55.4609C129.781 54.7943 130.242 54.2839 130.836 53.9297C131.43 53.5703 132.112 53.3906 132.883 53.3906C134.023 53.3906 134.948 53.7578 135.656 54.4922C136.37 55.2266 136.755 56.2005 136.812 57.4141L136.82 57.8594C136.82 58.6927 136.659 59.4375 136.336 60.0938C136.018 60.75 135.56 61.2578 134.961 61.6172C134.367 61.9766 133.68 62.1562 132.898 62.1562C131.706 62.1562 130.75 61.7604 130.031 60.9688C129.318 60.1719 128.961 59.112 128.961 57.7891V57.6953ZM130.859 57.8594C130.859 58.7292 131.039 59.4115 131.398 59.9062C131.758 60.3958 132.258 60.6406 132.898 60.6406C133.539 60.6406 134.036 60.3906 134.391 59.8906C134.75 59.3906 134.93 58.6589 134.93 57.6953C134.93 56.8411 134.745 56.1641 134.375 55.6641C134.01 55.1641 133.513 54.9141 132.883 54.9141C132.263 54.9141 131.771 55.1615 131.406 55.6562C131.042 56.1458 130.859 56.8802 130.859 57.8594ZM140.305 51.4922V53.5469H141.797V54.9531H140.305V59.6719C140.305 59.9948 140.367 60.2292 140.492 60.375C140.622 60.5156 140.852 60.5859 141.18 60.5859C141.398 60.5859 141.62 60.5599 141.844 60.5078V61.9766C141.411 62.0964 140.995 62.1562 140.594 62.1562C139.135 62.1562 138.406 61.3516 138.406 59.7422V54.9531H137.016V53.5469H138.406V51.4922H140.305ZM151.289 62C151.206 61.8385 151.133 61.5755 151.07 61.2109C150.466 61.8411 149.727 62.1562 148.852 62.1562C148.003 62.1562 147.31 61.9141 146.773 61.4297C146.237 60.9453 145.969 60.3464 145.969 59.6328C145.969 58.7318 146.302 58.0417 146.969 57.5625C147.641 57.0781 148.599 56.8359 149.844 56.8359H151.008V56.2812C151.008 55.8438 150.885 55.4948 150.641 55.2344C150.396 54.9688 150.023 54.8359 149.523 54.8359C149.091 54.8359 148.737 54.9453 148.461 55.1641C148.185 55.3776 148.047 55.651 148.047 55.9844H146.148C146.148 55.5208 146.302 55.0885 146.609 54.6875C146.917 54.2812 147.333 53.9635 147.859 53.7344C148.391 53.5052 148.982 53.3906 149.633 53.3906C150.622 53.3906 151.411 53.6406 152 54.1406C152.589 54.6354 152.891 55.3333 152.906 56.2344V60.0469C152.906 60.8073 153.013 61.4141 153.227 61.8672V62H151.289ZM149.203 60.6328C149.578 60.6328 149.93 60.5417 150.258 60.3594C150.591 60.1771 150.841 59.9323 151.008 59.625V58.0312H149.984C149.281 58.0312 148.753 58.1536 148.398 58.3984C148.044 58.6432 147.867 58.9896 147.867 59.4375C147.867 59.8021 147.987 60.0938 148.227 60.3125C148.471 60.526 148.797 60.6328 149.203 60.6328ZM159.516 61.1719C158.958 61.8281 158.167 62.1562 157.141 62.1562C156.224 62.1562 155.529 61.888 155.055 61.3516C154.586 60.8151 154.352 60.0391 154.352 59.0234V53.5469H156.25V59C156.25 60.0729 156.695 60.6094 157.586 60.6094C158.508 60.6094 159.13 60.2786 159.453 59.6172V53.5469H161.352V62H159.562L159.516 61.1719ZM165.164 51.4922V53.5469H166.656V54.9531H165.164V59.6719C165.164 59.9948 165.227 60.2292 165.352 60.375C165.482 60.5156 165.711 60.5859 166.039 60.5859C166.258 60.5859 166.479 60.5599 166.703 60.5078V61.9766C166.271 62.0964 165.854 62.1562 165.453 62.1562C163.995 62.1562 163.266 61.3516 163.266 59.7422V54.9531H161.875V53.5469H163.266V51.4922H165.164ZM169.484 54.4688C170.104 53.75 170.888 53.3906 171.836 53.3906C173.638 53.3906 174.552 54.4193 174.578 56.4766V62H172.68V56.5469C172.68 55.9635 172.552 55.5521 172.297 55.3125C172.047 55.0677 171.677 54.9453 171.188 54.9453C170.427 54.9453 169.859 55.2839 169.484 55.9609V62H167.586V50H169.484V54.4688ZM175.648 57.6953C175.648 56.8672 175.812 56.1224 176.141 55.4609C176.469 54.7943 176.93 54.2839 177.523 53.9297C178.117 53.5703 178.799 53.3906 179.57 53.3906C180.711 53.3906 181.635 53.7578 182.344 54.4922C183.057 55.2266 183.443 56.2005 183.5 57.4141L183.508 57.8594C183.508 58.6927 183.346 59.4375 183.023 60.0938C182.706 60.75 182.247 61.2578 181.648 61.6172C181.055 61.9766 180.367 62.1562 179.586 62.1562C178.393 62.1562 177.438 61.7604 176.719 60.9688C176.005 60.1719 175.648 59.112 175.648 57.7891V57.6953ZM177.547 57.8594C177.547 58.7292 177.727 59.4115 178.086 59.9062C178.445 60.3958 178.945 60.6406 179.586 60.6406C180.227 60.6406 180.724 60.3906 181.078 59.8906C181.438 59.3906 181.617 58.6589 181.617 57.6953C181.617 56.8411 181.432 56.1641 181.062 55.6641C180.698 55.1641 180.201 54.9141 179.57 54.9141C178.951 54.9141 178.458 55.1615 178.094 55.6562C177.729 56.1458 177.547 56.8802 177.547 57.8594ZM189.039 55.2812C188.789 55.2396 188.531 55.2188 188.266 55.2188C187.396 55.2188 186.81 55.5521 186.508 56.2188V62H184.609V53.5469H186.422L186.469 54.4922C186.927 53.7578 187.562 53.3906 188.375 53.3906C188.646 53.3906 188.87 53.4271 189.047 53.5L189.039 55.2812ZM191.758 62H189.859V53.5469H191.758V62ZM189.742 51.3516C189.742 51.0599 189.833 50.8177 190.016 50.625C190.203 50.4323 190.469 50.3359 190.812 50.3359C191.156 50.3359 191.422 50.4323 191.609 50.625C191.797 50.8177 191.891 51.0599 191.891 51.3516C191.891 51.638 191.797 51.8776 191.609 52.0703C191.422 52.2578 191.156 52.3516 190.812 52.3516C190.469 52.3516 190.203 52.2578 190.016 52.0703C189.833 51.8776 189.742 51.638 189.742 51.3516ZM195.359 60.4844H199.859V62H193V60.7578L197.289 55.0781H193.078V53.5469H199.695V54.75L195.359 60.4844ZM204.477 62.1562C203.273 62.1562 202.297 61.7786 201.547 61.0234C200.802 60.263 200.43 59.2526 200.43 57.9922V57.7578C200.43 56.9141 200.591 56.1615 200.914 55.5C201.242 54.8333 201.701 54.3151 202.289 53.9453C202.878 53.5755 203.534 53.3906 204.258 53.3906C205.409 53.3906 206.297 53.7578 206.922 54.4922C207.552 55.2266 207.867 56.2656 207.867 57.6094V58.375H202.344C202.401 59.0729 202.633 59.625 203.039 60.0312C203.451 60.4375 203.966 60.6406 204.586 60.6406C205.456 60.6406 206.164 60.2891 206.711 59.5859L207.734 60.5625C207.396 61.0677 206.943 61.4609 206.375 61.7422C205.812 62.0182 205.18 62.1562 204.477 62.1562ZM204.25 54.9141C203.729 54.9141 203.307 55.0964 202.984 55.4609C202.667 55.8255 202.464 56.3333 202.375 56.9844H205.992V56.8438C205.951 56.2083 205.781 55.7292 205.484 55.4062C205.188 55.0781 204.776 54.9141 204.25 54.9141ZM208.492 57.7109C208.492 56.4089 208.794 55.3646 209.398 54.5781C210.003 53.7865 210.812 53.3906 211.828 53.3906C212.724 53.3906 213.448 53.7031 214 54.3281V50H215.898V62H214.18L214.086 61.125C213.518 61.8125 212.76 62.1562 211.812 62.1562C210.823 62.1562 210.021 61.7578 209.406 60.9609C208.797 60.1641 208.492 59.0807 208.492 57.7109ZM210.391 57.875C210.391 58.7344 210.555 59.4062 210.883 59.8906C211.216 60.3698 211.688 60.6094 212.297 60.6094C213.073 60.6094 213.641 60.263 214 59.5703V55.9609C213.651 55.2839 213.089 54.9453 212.312 54.9453C211.698 54.9453 211.224 55.1901 210.891 55.6797C210.557 56.1641 210.391 56.8958 210.391 57.875Z" fill="white"/>
<path d="M38.5635 85H37.251V75.0469H38.5635V85ZM41.9678 77.6035L42.0088 78.5332C42.5739 77.8223 43.3122 77.4668 44.2236 77.4668C45.7868 77.4668 46.5752 78.3486 46.5889 80.1123V85H45.3242V80.1055C45.3197 79.5723 45.1966 79.1781 44.9551 78.9229C44.7181 78.6676 44.3467 78.54 43.8408 78.54C43.4307 78.54 43.0706 78.6494 42.7607 78.8682C42.4508 79.0869 42.2093 79.374 42.0361 79.7295V85H40.7715V77.6035H41.9678ZM51.6338 81.2334C51.6338 80.5088 51.7751 79.8571 52.0576 79.2783C52.3447 78.6995 52.7412 78.2529 53.2471 77.9385C53.7575 77.624 54.3385 77.4668 54.9902 77.4668C55.9974 77.4668 56.8109 77.8154 57.4307 78.5127C58.055 79.21 58.3672 80.1374 58.3672 81.2949V81.3838C58.3672 82.1038 58.2282 82.751 57.9502 83.3252C57.6768 83.8949 57.2826 84.3392 56.7676 84.6582C56.2572 84.9772 55.6693 85.1367 55.0039 85.1367C54.0013 85.1367 53.1878 84.7881 52.5635 84.0908C51.9437 83.3936 51.6338 82.4707 51.6338 81.3223V81.2334ZM52.9053 81.3838C52.9053 82.2041 53.0944 82.8626 53.4727 83.3594C53.8555 83.8561 54.3659 84.1045 55.0039 84.1045C55.6465 84.1045 56.1569 83.8538 56.5352 83.3525C56.9134 82.8467 57.1025 82.1403 57.1025 81.2334C57.1025 80.4222 56.9089 79.766 56.5215 79.2646C56.1387 78.7588 55.6283 78.5059 54.9902 78.5059C54.3659 78.5059 53.8623 78.7542 53.4795 79.251C53.0967 79.7477 52.9053 80.4587 52.9053 81.3838ZM63.5283 78.7383C63.3369 78.7064 63.1296 78.6904 62.9062 78.6904C62.0768 78.6904 61.514 79.0436 61.2178 79.75V85H59.9531V77.6035H61.1836L61.2041 78.458C61.6188 77.7972 62.2067 77.4668 62.9678 77.4668C63.2139 77.4668 63.4007 77.4987 63.5283 77.5625V78.7383ZM64.2529 81.2402C64.2529 80.1055 64.5218 79.194 65.0596 78.5059C65.5973 77.8132 66.3014 77.4668 67.1719 77.4668C68.0378 77.4668 68.7236 77.763 69.2295 78.3555V74.5H70.4941V85H69.332L69.2705 84.207C68.7646 84.8268 68.0605 85.1367 67.1582 85.1367C66.3014 85.1367 65.6019 84.7858 65.0596 84.084C64.5218 83.3822 64.2529 82.4661 64.2529 81.3359V81.2402ZM65.5176 81.3838C65.5176 82.2223 65.6908 82.8786 66.0371 83.3525C66.3835 83.8265 66.862 84.0635 67.4727 84.0635C68.2747 84.0635 68.8604 83.7035 69.2295 82.9834V79.5859C68.8512 78.8887 68.2702 78.54 67.4863 78.54C66.8665 78.54 66.3835 78.7793 66.0371 79.2578C65.6908 79.7363 65.5176 80.445 65.5176 81.3838ZM75.5322 85.1367C74.5296 85.1367 73.7139 84.8086 73.085 84.1523C72.4561 83.4915 72.1416 82.6097 72.1416 81.5068V81.2744C72.1416 80.5407 72.2806 79.8867 72.5586 79.3125C72.8411 78.7337 73.2331 78.2826 73.7344 77.959C74.2402 77.6309 74.7871 77.4668 75.375 77.4668C76.3366 77.4668 77.084 77.7835 77.6172 78.417C78.1504 79.0505 78.417 79.9574 78.417 81.1377V81.6641H73.4062C73.4245 82.3932 73.6364 82.9834 74.042 83.4346C74.4521 83.8812 74.9717 84.1045 75.6006 84.1045C76.0472 84.1045 76.4255 84.0133 76.7354 83.8311C77.0452 83.6488 77.3164 83.4072 77.5488 83.1064L78.3213 83.708C77.7015 84.6605 76.7718 85.1367 75.5322 85.1367ZM75.375 78.5059C74.8646 78.5059 74.4362 78.6927 74.0898 79.0664C73.7435 79.4355 73.5293 79.9551 73.4473 80.625H77.1523V80.5293C77.1159 79.8867 76.9427 79.39 76.6328 79.0391C76.3229 78.6836 75.9036 78.5059 75.375 78.5059ZM83.4619 78.7383C83.2705 78.7064 83.0632 78.6904 82.8398 78.6904C82.0104 78.6904 81.4476 79.0436 81.1514 79.75V85H79.8867V77.6035H81.1172L81.1377 78.458C81.5524 77.7972 82.1403 77.4668 82.9014 77.4668C83.1475 77.4668 83.3343 77.4987 83.4619 77.5625V78.7383ZM89.8193 75.8125V77.6035H91.2002V78.5811H89.8193V83.168C89.8193 83.4642 89.8809 83.6875 90.0039 83.8379C90.127 83.9837 90.3366 84.0566 90.6328 84.0566C90.7786 84.0566 90.9792 84.0293 91.2344 83.9746V85C90.9017 85.0911 90.5781 85.1367 90.2637 85.1367C89.6986 85.1367 89.2725 84.9658 88.9854 84.624C88.6982 84.2822 88.5547 83.7969 88.5547 83.168V78.5811H87.208V77.6035H88.5547V75.8125H89.8193ZM92.2119 81.2334C92.2119 80.5088 92.3532 79.8571 92.6357 79.2783C92.9229 78.6995 93.3193 78.2529 93.8252 77.9385C94.3356 77.624 94.9167 77.4668 95.5684 77.4668C96.5755 77.4668 97.389 77.8154 98.0088 78.5127C98.6331 79.21 98.9453 80.1374 98.9453 81.2949V81.3838C98.9453 82.1038 98.8063 82.751 98.5283 83.3252C98.2549 83.8949 97.8607 84.3392 97.3457 84.6582C96.8353 84.9772 96.2474 85.1367 95.582 85.1367C94.5794 85.1367 93.766 84.7881 93.1416 84.0908C92.5218 83.3936 92.2119 82.4707 92.2119 81.3223V81.2334ZM93.4834 81.3838C93.4834 82.2041 93.6725 82.8626 94.0508 83.3594C94.4336 83.8561 94.944 84.1045 95.582 84.1045C96.2246 84.1045 96.735 83.8538 97.1133 83.3525C97.4915 82.8467 97.6807 82.1403 97.6807 81.2334C97.6807 80.4222 97.487 79.766 97.0996 79.2646C96.7168 78.7588 96.2064 78.5059 95.5684 78.5059C94.944 78.5059 94.4404 78.7542 94.0576 79.251C93.6748 79.7477 93.4834 80.4587 93.4834 81.3838ZM107.579 78.7383C107.388 78.7064 107.18 78.6904 106.957 78.6904C106.128 78.6904 105.565 79.0436 105.269 79.75V85H104.004V77.6035H105.234L105.255 78.458C105.67 77.7972 106.257 77.4668 107.019 77.4668C107.265 77.4668 107.451 77.4987 107.579 77.5625V78.7383ZM111.681 85.1367C110.678 85.1367 109.862 84.8086 109.233 84.1523C108.604 83.4915 108.29 82.6097 108.29 81.5068V81.2744C108.29 80.5407 108.429 79.8867 108.707 79.3125C108.99 78.7337 109.382 78.2826 109.883 77.959C110.389 77.6309 110.936 77.4668 111.523 77.4668C112.485 77.4668 113.232 77.7835 113.766 78.417C114.299 79.0505 114.565 79.9574 114.565 81.1377V81.6641H109.555C109.573 82.3932 109.785 82.9834 110.19 83.4346C110.601 83.8812 111.12 84.1045 111.749 84.1045C112.196 84.1045 112.574 84.0133 112.884 83.8311C113.194 83.6488 113.465 83.4072 113.697 83.1064L114.47 83.708C113.85 84.6605 112.92 85.1367 111.681 85.1367ZM111.523 78.5059C111.013 78.5059 110.585 78.6927 110.238 79.0664C109.892 79.4355 109.678 79.9551 109.596 80.625H113.301V80.5293C113.264 79.8867 113.091 79.39 112.781 79.0391C112.471 78.6836 112.052 78.5059 111.523 78.5059ZM119.002 84.1045C119.453 84.1045 119.847 83.9678 120.185 83.6943C120.522 83.4209 120.709 83.0791 120.745 82.6689H121.941C121.919 83.0928 121.773 83.4961 121.504 83.8789C121.235 84.2617 120.875 84.5671 120.424 84.7949C119.977 85.0228 119.503 85.1367 119.002 85.1367C117.995 85.1367 117.193 84.8018 116.596 84.1318C116.003 83.4574 115.707 82.5368 115.707 81.3701V81.1582C115.707 80.4382 115.839 79.7979 116.104 79.2373C116.368 78.6768 116.746 78.2415 117.238 77.9316C117.735 77.6217 118.321 77.4668 118.995 77.4668C119.825 77.4668 120.513 77.7152 121.06 78.2119C121.611 78.7087 121.905 79.3535 121.941 80.1465H120.745C120.709 79.668 120.526 79.276 120.198 78.9707C119.875 78.6608 119.474 78.5059 118.995 78.5059C118.353 78.5059 117.854 78.7383 117.498 79.2031C117.147 79.6634 116.972 80.3311 116.972 81.2061V81.4453C116.972 82.2975 117.147 82.9538 117.498 83.4141C117.849 83.8743 118.35 84.1045 119.002 84.1045ZM123.028 81.2334C123.028 80.5088 123.17 79.8571 123.452 79.2783C123.739 78.6995 124.136 78.2529 124.642 77.9385C125.152 77.624 125.733 77.4668 126.385 77.4668C127.392 77.4668 128.205 77.8154 128.825 78.5127C129.45 79.21 129.762 80.1374 129.762 81.2949V81.3838C129.762 82.1038 129.623 82.751 129.345 83.3252C129.071 83.8949 128.677 84.3392 128.162 84.6582C127.652 84.9772 127.064 85.1367 126.398 85.1367C125.396 85.1367 124.582 84.7881 123.958 84.0908C123.338 83.3936 123.028 82.4707 123.028 81.3223V81.2334ZM124.3 81.3838C124.3 82.2041 124.489 82.8626 124.867 83.3594C125.25 83.8561 125.76 84.1045 126.398 84.1045C127.041 84.1045 127.551 83.8538 127.93 83.3525C128.308 82.8467 128.497 82.1403 128.497 81.2334C128.497 80.4222 128.303 79.766 127.916 79.2646C127.533 78.7588 127.023 78.5059 126.385 78.5059C125.76 78.5059 125.257 78.7542 124.874 79.251C124.491 79.7477 124.3 80.4587 124.3 81.3838ZM134.923 78.7383C134.731 78.7064 134.524 78.6904 134.301 78.6904C133.471 78.6904 132.909 79.0436 132.612 79.75V85H131.348V77.6035H132.578L132.599 78.458C133.013 77.7972 133.601 77.4668 134.362 77.4668C134.608 77.4668 134.795 77.4987 134.923 77.5625V78.7383ZM135.647 81.2402C135.647 80.1055 135.916 79.194 136.454 78.5059C136.992 77.8132 137.696 77.4668 138.566 77.4668C139.432 77.4668 140.118 77.763 140.624 78.3555V74.5H141.889V85H140.727L140.665 84.207C140.159 84.8268 139.455 85.1367 138.553 85.1367C137.696 85.1367 136.996 84.7858 136.454 84.084C135.916 83.3822 135.647 82.4661 135.647 81.3359V81.2402ZM136.912 81.3838C136.912 82.2223 137.085 82.8786 137.432 83.3525C137.778 83.8265 138.257 84.0635 138.867 84.0635C139.669 84.0635 140.255 83.7035 140.624 82.9834V79.5859C140.246 78.8887 139.665 78.54 138.881 78.54C138.261 78.54 137.778 78.7793 137.432 79.2578C137.085 79.7363 136.912 80.445 136.912 81.3838ZM151.896 85C151.824 84.8542 151.764 84.5944 151.719 84.2207C151.131 84.8314 150.429 85.1367 149.613 85.1367C148.884 85.1367 148.285 84.9316 147.815 84.5215C147.351 84.1068 147.118 83.5827 147.118 82.9492C147.118 82.179 147.41 81.582 147.993 81.1582C148.581 80.7298 149.406 80.5156 150.468 80.5156H151.698V79.9346C151.698 79.4925 151.566 79.1416 151.302 78.8818C151.037 78.6175 150.648 78.4854 150.133 78.4854C149.682 78.4854 149.303 78.5993 148.998 78.8271C148.693 79.055 148.54 79.3307 148.54 79.6543H147.269C147.269 79.2852 147.398 78.9297 147.658 78.5879C147.923 78.2415 148.278 77.9681 148.725 77.7676C149.176 77.5671 149.67 77.4668 150.208 77.4668C151.06 77.4668 151.728 77.681 152.211 78.1094C152.694 78.5332 152.945 79.1188 152.963 79.8662V83.2705C152.963 83.9495 153.049 84.4896 153.223 84.8906V85H151.896ZM149.798 84.0361C150.194 84.0361 150.57 83.9336 150.926 83.7285C151.281 83.5234 151.539 83.2568 151.698 82.9287V81.4111H150.707C149.158 81.4111 148.383 81.8646 148.383 82.7715C148.383 83.168 148.515 83.4779 148.779 83.7012C149.044 83.9245 149.383 84.0361 149.798 84.0361ZM161.911 83.2568L164.755 75.0469H166.19L162.499 85H161.337L157.652 75.0469H159.081L161.911 83.2568ZM166.683 81.2334C166.683 80.5088 166.824 79.8571 167.106 79.2783C167.394 78.6995 167.79 78.2529 168.296 77.9385C168.806 77.624 169.387 77.4668 170.039 77.4668C171.046 77.4668 171.86 77.8154 172.479 78.5127C173.104 79.21 173.416 80.1374 173.416 81.2949V81.3838C173.416 82.1038 173.277 82.751 172.999 83.3252C172.726 83.8949 172.331 84.3392 171.816 84.6582C171.306 84.9772 170.718 85.1367 170.053 85.1367C169.05 85.1367 168.237 84.7881 167.612 84.0908C166.993 83.3936 166.683 82.4707 166.683 81.3223V81.2334ZM167.954 81.3838C167.954 82.2041 168.143 82.8626 168.521 83.3594C168.904 83.8561 169.415 84.1045 170.053 84.1045C170.695 84.1045 171.206 83.8538 171.584 83.3525C171.962 82.8467 172.151 82.1403 172.151 81.2334C172.151 80.4222 171.958 79.766 171.57 79.2646C171.188 78.7588 170.677 78.5059 170.039 78.5059C169.415 78.5059 168.911 78.7542 168.528 79.251C168.146 79.7477 167.954 80.4587 167.954 81.3838ZM176.376 85H175.111V77.6035H176.376V85ZM175.009 75.6416C175.009 75.4365 175.07 75.2633 175.193 75.1221C175.321 74.9808 175.508 74.9102 175.754 74.9102C176 74.9102 176.187 74.9808 176.314 75.1221C176.442 75.2633 176.506 75.4365 176.506 75.6416C176.506 75.8467 176.442 76.0176 176.314 76.1543C176.187 76.291 176 76.3594 175.754 76.3594C175.508 76.3594 175.321 76.291 175.193 76.1543C175.07 76.0176 175.009 75.8467 175.009 75.6416ZM181.373 84.1045C181.824 84.1045 182.218 83.9678 182.556 83.6943C182.893 83.4209 183.08 83.0791 183.116 82.6689H184.312C184.29 83.0928 184.144 83.4961 183.875 83.8789C183.606 84.2617 183.246 84.5671 182.795 84.7949C182.348 85.0228 181.874 85.1367 181.373 85.1367C180.366 85.1367 179.564 84.8018 178.967 84.1318C178.374 83.4574 178.078 82.5368 178.078 81.3701V81.1582C178.078 80.4382 178.21 79.7979 178.475 79.2373C178.739 78.6768 179.117 78.2415 179.609 77.9316C180.106 77.6217 180.692 77.4668 181.366 77.4668C182.196 77.4668 182.884 77.7152 183.431 78.2119C183.982 78.7087 184.276 79.3535 184.312 80.1465H183.116C183.08 79.668 182.897 79.276 182.569 78.9707C182.246 78.6608 181.845 78.5059 181.366 78.5059C180.724 78.5059 180.225 78.7383 179.869 79.2031C179.518 79.6634 179.343 80.3311 179.343 81.2061V81.4453C179.343 82.2975 179.518 82.9538 179.869 83.4141C180.22 83.8743 180.721 84.1045 181.373 84.1045ZM188.804 85.1367C187.801 85.1367 186.985 84.8086 186.356 84.1523C185.728 83.4915 185.413 82.6097 185.413 81.5068V81.2744C185.413 80.5407 185.552 79.8867 185.83 79.3125C186.113 78.7337 186.505 78.2826 187.006 77.959C187.512 77.6309 188.059 77.4668 188.646 77.4668C189.608 77.4668 190.355 77.7835 190.889 78.417C191.422 79.0505 191.688 79.9574 191.688 81.1377V81.6641H186.678C186.696 82.3932 186.908 82.9834 187.313 83.4346C187.724 83.8812 188.243 84.1045 188.872 84.1045C189.319 84.1045 189.697 84.0133 190.007 83.8311C190.317 83.6488 190.588 83.4072 190.82 83.1064L191.593 83.708C190.973 84.6605 190.043 85.1367 188.804 85.1367ZM188.646 78.5059C188.136 78.5059 187.708 78.6927 187.361 79.0664C187.015 79.4355 186.801 79.9551 186.719 80.625H190.424V80.5293C190.387 79.8867 190.214 79.39 189.904 79.0391C189.594 78.6836 189.175 78.5059 188.646 78.5059ZM196.829 85V75.0469H199.639C200.505 75.0469 201.27 75.2383 201.936 75.6211C202.601 76.0039 203.114 76.5485 203.474 77.2549C203.838 77.9613 204.023 78.7725 204.027 79.6885V80.3242C204.027 81.263 203.845 82.0856 203.48 82.792C203.12 83.4984 202.603 84.0407 201.929 84.4189C201.259 84.7972 200.477 84.9909 199.584 85H196.829ZM198.142 76.127V83.9268H199.522C200.534 83.9268 201.32 83.6123 201.881 82.9834C202.446 82.3545 202.729 81.459 202.729 80.2969V79.7158C202.729 78.5856 202.462 77.7083 201.929 77.084C201.4 76.4551 200.648 76.1361 199.673 76.127H198.142ZM208.888 85.1367C207.885 85.1367 207.069 84.8086 206.44 84.1523C205.812 83.4915 205.497 82.6097 205.497 81.5068V81.2744C205.497 80.5407 205.636 79.8867 205.914 79.3125C206.197 78.7337 206.589 78.2826 207.09 77.959C207.596 77.6309 208.143 77.4668 208.73 77.4668C209.692 77.4668 210.439 77.7835 210.973 78.417C211.506 79.0505 211.772 79.9574 211.772 81.1377V81.6641H206.762C206.78 82.3932 206.992 82.9834 207.397 83.4346C207.808 83.8812 208.327 84.1045 208.956 84.1045C209.403 84.1045 209.781 84.0133 210.091 83.8311C210.401 83.6488 210.672 83.4072 210.904 83.1064L211.677 83.708C211.057 84.6605 210.127 85.1367 208.888 85.1367ZM208.73 78.5059C208.22 78.5059 207.792 78.6927 207.445 79.0664C207.099 79.4355 206.885 79.9551 206.803 80.625H210.508V80.5293C210.471 79.8867 210.298 79.39 209.988 79.0391C209.678 78.6836 209.259 78.5059 208.73 78.5059ZM217.549 83.0381C217.549 82.6963 217.419 82.432 217.159 82.2451C216.904 82.0537 216.455 81.8896 215.812 81.7529C215.174 81.6162 214.666 81.4521 214.288 81.2607C213.914 81.0693 213.636 80.8415 213.454 80.5771C213.276 80.3128 213.188 79.9984 213.188 79.6338C213.188 79.0277 213.443 78.515 213.953 78.0957C214.468 77.6764 215.124 77.4668 215.922 77.4668C216.76 77.4668 217.439 77.6833 217.959 78.1162C218.483 78.5492 218.745 79.1029 218.745 79.7773H217.474C217.474 79.431 217.326 79.1325 217.029 78.8818C216.738 78.6312 216.368 78.5059 215.922 78.5059C215.462 78.5059 215.102 78.6061 214.842 78.8066C214.582 79.0072 214.452 79.2692 214.452 79.5928C214.452 79.8981 214.573 80.1283 214.814 80.2832C215.056 80.4382 215.491 80.5863 216.12 80.7275C216.754 80.8688 217.266 81.0374 217.658 81.2334C218.05 81.4294 218.34 81.6663 218.526 81.9443C218.718 82.2178 218.813 82.5527 218.813 82.9492C218.813 83.61 218.549 84.141 218.021 84.542C217.492 84.9385 216.806 85.1367 215.963 85.1367C215.37 85.1367 214.846 85.0319 214.391 84.8223C213.935 84.6126 213.577 84.321 213.317 83.9473C213.062 83.569 212.935 83.1611 212.935 82.7236H214.199C214.222 83.1475 214.391 83.4847 214.705 83.7354C215.024 83.9814 215.443 84.1045 215.963 84.1045C216.441 84.1045 216.824 84.0088 217.111 83.8174C217.403 83.6214 217.549 83.3617 217.549 83.0381ZM223.428 84.1045C223.879 84.1045 224.273 83.9678 224.61 83.6943C224.948 83.4209 225.134 83.0791 225.171 82.6689H226.367C226.344 83.0928 226.199 83.4961 225.93 83.8789C225.661 84.2617 225.301 84.5671 224.85 84.7949C224.403 85.0228 223.929 85.1367 223.428 85.1367C222.421 85.1367 221.618 84.8018 221.021 84.1318C220.429 83.4574 220.133 82.5368 220.133 81.3701V81.1582C220.133 80.4382 220.265 79.7979 220.529 79.2373C220.794 78.6768 221.172 78.2415 221.664 77.9316C222.161 77.6217 222.746 77.4668 223.421 77.4668C224.25 77.4668 224.938 77.7152 225.485 78.2119C226.037 78.7087 226.331 79.3535 226.367 80.1465H225.171C225.134 79.668 224.952 79.276 224.624 78.9707C224.3 78.6608 223.899 78.5059 223.421 78.5059C222.778 78.5059 222.279 78.7383 221.924 79.2031C221.573 79.6634 221.397 80.3311 221.397 81.2061V81.4453C221.397 82.2975 221.573 82.9538 221.924 83.4141C222.275 83.8743 222.776 84.1045 223.428 84.1045ZM231.364 78.7383C231.173 78.7064 230.965 78.6904 230.742 78.6904C229.913 78.6904 229.35 79.0436 229.054 79.75V85H227.789V77.6035H229.02L229.04 78.458C229.455 77.7972 230.043 77.4668 230.804 77.4668C231.05 77.4668 231.237 77.4987 231.364 77.5625V78.7383ZM233.907 85H232.643V77.6035H233.907V85ZM232.54 75.6416C232.54 75.4365 232.602 75.2633 232.725 75.1221C232.852 74.9808 233.039 74.9102 233.285 74.9102C233.531 74.9102 233.718 74.9808 233.846 75.1221C233.973 75.2633 234.037 75.4365 234.037 75.6416C234.037 75.8467 233.973 76.0176 233.846 76.1543C233.718 76.291 233.531 76.3594 233.285 76.3594C233.039 76.3594 232.852 76.291 232.725 76.1543C232.602 76.0176 232.54 75.8467 232.54 75.6416ZM242.186 81.3838C242.186 82.5094 241.928 83.4163 241.413 84.1045C240.898 84.7926 240.201 85.1367 239.321 85.1367C238.424 85.1367 237.717 84.8519 237.202 84.2822V87.8438H235.938V77.6035H237.093L237.154 78.4238C237.669 77.7858 238.385 77.4668 239.301 77.4668C240.189 77.4668 240.891 77.8018 241.406 78.4717C241.926 79.1416 242.186 80.0736 242.186 81.2676V81.3838ZM240.921 81.2402C240.921 80.4062 240.743 79.7477 240.388 79.2646C240.032 78.7816 239.545 78.54 238.925 78.54C238.159 78.54 237.585 78.8796 237.202 79.5586V83.0928C237.58 83.7673 238.159 84.1045 238.938 84.1045C239.545 84.1045 240.025 83.8652 240.381 83.3867C240.741 82.9036 240.921 82.1882 240.921 81.2402ZM245.515 75.8125V77.6035H246.896V78.5811H245.515V83.168C245.515 83.4642 245.576 83.6875 245.699 83.8379C245.822 83.9837 246.032 84.0566 246.328 84.0566C246.474 84.0566 246.674 84.0293 246.93 83.9746V85C246.597 85.0911 246.273 85.1367 245.959 85.1367C245.394 85.1367 244.968 84.9658 244.681 84.624C244.394 84.2822 244.25 83.7969 244.25 83.168V78.5811H242.903V77.6035H244.25V75.8125H245.515ZM249.753 85H248.488V77.6035H249.753V85ZM248.386 75.6416C248.386 75.4365 248.447 75.2633 248.57 75.1221C248.698 74.9808 248.885 74.9102 249.131 74.9102C249.377 74.9102 249.564 74.9808 249.691 75.1221C249.819 75.2633 249.883 75.4365 249.883 75.6416C249.883 75.8467 249.819 76.0176 249.691 76.1543C249.564 76.291 249.377 76.3594 249.131 76.3594C248.885 76.3594 248.698 76.291 248.57 76.1543C248.447 76.0176 248.386 75.8467 248.386 75.6416ZM251.448 81.2334C251.448 80.5088 251.59 79.8571 251.872 79.2783C252.159 78.6995 252.556 78.2529 253.062 77.9385C253.572 77.624 254.153 77.4668 254.805 77.4668C255.812 77.4668 256.625 77.8154 257.245 78.5127C257.869 79.21 258.182 80.1374 258.182 81.2949V81.3838C258.182 82.1038 258.043 82.751 257.765 83.3252C257.491 83.8949 257.097 84.3392 256.582 84.6582C256.072 84.9772 255.484 85.1367 254.818 85.1367C253.816 85.1367 253.002 84.7881 252.378 84.0908C251.758 83.3936 251.448 82.4707 251.448 81.3223V81.2334ZM252.72 81.3838C252.72 82.2041 252.909 82.8626 253.287 83.3594C253.67 83.8561 254.18 84.1045 254.818 84.1045C255.461 84.1045 255.971 83.8538 256.35 83.3525C256.728 82.8467 256.917 82.1403 256.917 81.2334C256.917 80.4222 256.723 79.766 256.336 79.2646C255.953 78.7588 255.443 78.5059 254.805 78.5059C254.18 78.5059 253.677 78.7542 253.294 79.251C252.911 79.7477 252.72 80.4587 252.72 81.3838ZM260.964 77.6035L261.005 78.5332C261.57 77.8223 262.308 77.4668 263.22 77.4668C264.783 77.4668 265.571 78.3486 265.585 80.1123V85H264.32V80.1055C264.316 79.5723 264.193 79.1781 263.951 78.9229C263.714 78.6676 263.343 78.54 262.837 78.54C262.427 78.54 262.067 78.6494 261.757 78.8682C261.447 79.0869 261.205 79.374 261.032 79.7295V85H259.768V77.6035H260.964ZM41.5234 107C41.4505 106.854 41.3913 106.594 41.3457 106.221C40.7578 106.831 40.056 107.137 39.2402 107.137C38.5111 107.137 37.9118 106.932 37.4424 106.521C36.9775 106.107 36.7451 105.583 36.7451 104.949C36.7451 104.179 37.0368 103.582 37.6201 103.158C38.208 102.73 39.0329 102.516 40.0947 102.516H41.3252V101.935C41.3252 101.493 41.193 101.142 40.9287 100.882C40.6644 100.618 40.2747 100.485 39.7598 100.485C39.3086 100.485 38.9303 100.599 38.625 100.827C38.3197 101.055 38.167 101.331 38.167 101.654H36.8955C36.8955 101.285 37.0254 100.93 37.2852 100.588C37.5495 100.242 37.9049 99.9681 38.3516 99.7676C38.8027 99.5671 39.2972 99.4668 39.835 99.4668C40.6872 99.4668 41.3548 99.681 41.8379 100.109C42.321 100.533 42.5716 101.119 42.5898 101.866V105.271C42.5898 105.95 42.6764 106.49 42.8496 106.891V107H41.5234ZM39.4248 106.036C39.8213 106.036 40.1973 105.934 40.5527 105.729C40.9082 105.523 41.1657 105.257 41.3252 104.929V103.411H40.334C38.7845 103.411 38.0098 103.865 38.0098 104.771C38.0098 105.168 38.1419 105.478 38.4062 105.701C38.6706 105.924 39.0101 106.036 39.4248 106.036ZM45.9463 107H44.6816V96.5H45.9463V107ZM49.3506 107H48.0859V96.5H49.3506V107ZM51.0459 103.233C51.0459 102.509 51.1872 101.857 51.4697 101.278C51.7568 100.7 52.1533 100.253 52.6592 99.9385C53.1696 99.624 53.7507 99.4668 54.4023 99.4668C55.4095 99.4668 56.223 99.8154 56.8428 100.513C57.4671 101.21 57.7793 102.137 57.7793 103.295V103.384C57.7793 104.104 57.6403 104.751 57.3623 105.325C57.0889 105.895 56.6947 106.339 56.1797 106.658C55.6693 106.977 55.0814 107.137 54.416 107.137C53.4134 107.137 52.5999 106.788 51.9756 106.091C51.3558 105.394 51.0459 104.471 51.0459 103.322V103.233ZM52.3174 103.384C52.3174 104.204 52.5065 104.863 52.8848 105.359C53.2676 105.856 53.778 106.104 54.416 106.104C55.0586 106.104 55.569 105.854 55.9473 105.353C56.3255 104.847 56.5146 104.14 56.5146 103.233C56.5146 102.422 56.321 101.766 55.9336 101.265C55.5508 100.759 55.0404 100.506 54.4023 100.506C53.778 100.506 53.2744 100.754 52.8916 101.251C52.5088 101.748 52.3174 102.459 52.3174 103.384ZM65.9141 105.257L67.3359 99.6035H68.6006L66.4473 107H65.4219L63.624 101.395L61.874 107H60.8486L58.7021 99.6035H59.96L61.416 105.141L63.1387 99.6035H64.1572L65.9141 105.257ZM74.5547 99.6035L74.5889 100.424C75.1312 99.7858 75.8626 99.4668 76.7832 99.4668C77.8177 99.4668 78.5218 99.8633 78.8955 100.656C79.1416 100.301 79.4606 100.014 79.8525 99.7949C80.249 99.5762 80.7161 99.4668 81.2539 99.4668C82.8763 99.4668 83.7012 100.326 83.7285 102.044V107H82.4639V102.119C82.4639 101.59 82.3431 101.196 82.1016 100.937C81.86 100.672 81.4544 100.54 80.8848 100.54C80.4154 100.54 80.0257 100.681 79.7158 100.964C79.4059 101.242 79.2259 101.618 79.1758 102.092V107H77.9043V102.153C77.9043 101.078 77.3779 100.54 76.3252 100.54C75.4958 100.54 74.9284 100.893 74.623 101.6V107H73.3584V99.6035H74.5547ZM85.3076 103.233C85.3076 102.509 85.4489 101.857 85.7314 101.278C86.0186 100.7 86.415 100.253 86.9209 99.9385C87.4313 99.624 88.0124 99.4668 88.6641 99.4668C89.6712 99.4668 90.4847 99.8154 91.1045 100.513C91.7288 101.21 92.041 102.137 92.041 103.295V103.384C92.041 104.104 91.902 104.751 91.624 105.325C91.3506 105.895 90.9564 106.339 90.4414 106.658C89.931 106.977 89.3431 107.137 88.6777 107.137C87.6751 107.137 86.8617 106.788 86.2373 106.091C85.6175 105.394 85.3076 104.471 85.3076 103.322V103.233ZM86.5791 103.384C86.5791 104.204 86.7682 104.863 87.1465 105.359C87.5293 105.856 88.0397 106.104 88.6777 106.104C89.3203 106.104 89.8307 105.854 90.209 105.353C90.5872 104.847 90.7764 104.14 90.7764 103.233C90.7764 102.422 90.5827 101.766 90.1953 101.265C89.8125 100.759 89.3021 100.506 88.6641 100.506C88.0397 100.506 87.5361 100.754 87.1533 101.251C86.7705 101.748 86.5791 102.459 86.5791 103.384ZM94.8232 99.6035L94.8643 100.533C95.4294 99.8223 96.1676 99.4668 97.0791 99.4668C98.6423 99.4668 99.4307 100.349 99.4443 102.112V107H98.1797V102.105C98.1751 101.572 98.0521 101.178 97.8105 100.923C97.5736 100.668 97.2021 100.54 96.6963 100.54C96.2861 100.54 95.9261 100.649 95.6162 100.868C95.3063 101.087 95.0648 101.374 94.8916 101.729V107H93.627V99.6035H94.8232ZM101.044 103.24C101.044 102.105 101.313 101.194 101.851 100.506C102.388 99.8132 103.092 99.4668 103.963 99.4668C104.829 99.4668 105.515 99.763 106.021 100.355V96.5H107.285V107H106.123L106.062 106.207C105.556 106.827 104.852 107.137 103.949 107.137C103.092 107.137 102.393 106.786 101.851 106.084C101.313 105.382 101.044 104.466 101.044 103.336V103.24ZM102.309 103.384C102.309 104.222 102.482 104.879 102.828 105.353C103.174 105.826 103.653 106.063 104.264 106.063C105.066 106.063 105.651 105.703 106.021 104.983V101.586C105.642 100.889 105.061 100.54 104.277 100.54C103.658 100.54 103.174 100.779 102.828 101.258C102.482 101.736 102.309 102.445 102.309 103.384ZM113.82 107C113.747 106.854 113.688 106.594 113.643 106.221C113.055 106.831 112.353 107.137 111.537 107.137C110.808 107.137 110.209 106.932 109.739 106.521C109.274 106.107 109.042 105.583 109.042 104.949C109.042 104.179 109.334 103.582 109.917 103.158C110.505 102.73 111.33 102.516 112.392 102.516H113.622V101.935C113.622 101.493 113.49 101.142 113.226 100.882C112.961 100.618 112.572 100.485 112.057 100.485C111.605 100.485 111.227 100.599 110.922 100.827C110.617 101.055 110.464 101.331 110.464 101.654H109.192C109.192 101.285 109.322 100.93 109.582 100.588C109.846 100.242 110.202 99.9681 110.648 99.7676C111.1 99.5671 111.594 99.4668 112.132 99.4668C112.984 99.4668 113.652 99.681 114.135 100.109C114.618 100.533 114.868 101.119 114.887 101.866V105.271C114.887 105.95 114.973 106.49 115.146 106.891V107H113.82ZM111.722 106.036C112.118 106.036 112.494 105.934 112.85 105.729C113.205 105.523 113.463 105.257 113.622 104.929V103.411H112.631C111.081 103.411 110.307 103.865 110.307 104.771C110.307 105.168 110.439 105.478 110.703 105.701C110.967 105.924 111.307 106.036 111.722 106.036ZM119.18 105.147L120.902 99.6035H122.256L119.282 108.142C118.822 109.372 118.09 109.987 117.088 109.987L116.849 109.967L116.377 109.878V108.853L116.719 108.88C117.147 108.88 117.48 108.793 117.717 108.62C117.958 108.447 118.157 108.13 118.312 107.67L118.592 106.918L115.953 99.6035H117.334L119.18 105.147ZM122.68 106.337C122.68 106.118 122.743 105.936 122.871 105.79C123.003 105.644 123.199 105.571 123.459 105.571C123.719 105.571 123.915 105.644 124.047 105.79C124.184 105.936 124.252 106.118 124.252 106.337C124.252 106.547 124.184 106.722 124.047 106.863C123.915 107.005 123.719 107.075 123.459 107.075C123.199 107.075 123.003 107.005 122.871 106.863C122.743 106.722 122.68 106.547 122.68 106.337ZM129.311 106.104C129.762 106.104 130.156 105.968 130.493 105.694C130.83 105.421 131.017 105.079 131.054 104.669H132.25C132.227 105.093 132.081 105.496 131.812 105.879C131.544 106.262 131.184 106.567 130.732 106.795C130.286 107.023 129.812 107.137 129.311 107.137C128.303 107.137 127.501 106.802 126.904 106.132C126.312 105.457 126.016 104.537 126.016 103.37V103.158C126.016 102.438 126.148 101.798 126.412 101.237C126.676 100.677 127.055 100.242 127.547 99.9316C128.044 99.6217 128.629 99.4668 129.304 99.4668C130.133 99.4668 130.821 99.7152 131.368 100.212C131.92 100.709 132.214 101.354 132.25 102.146H131.054C131.017 101.668 130.835 101.276 130.507 100.971C130.183 100.661 129.782 100.506 129.304 100.506C128.661 100.506 128.162 100.738 127.807 101.203C127.456 101.663 127.28 102.331 127.28 103.206V103.445C127.28 104.298 127.456 104.954 127.807 105.414C128.158 105.874 128.659 106.104 129.311 106.104ZM133.337 103.233C133.337 102.509 133.478 101.857 133.761 101.278C134.048 100.7 134.444 100.253 134.95 99.9385C135.461 99.624 136.042 99.4668 136.693 99.4668C137.701 99.4668 138.514 99.8154 139.134 100.513C139.758 101.21 140.07 102.137 140.07 103.295V103.384C140.07 104.104 139.931 104.751 139.653 105.325C139.38 105.895 138.986 106.339 138.471 106.658C137.96 106.977 137.372 107.137 136.707 107.137C135.704 107.137 134.891 106.788 134.267 106.091C133.647 105.394 133.337 104.471 133.337 103.322V103.233ZM134.608 103.384C134.608 104.204 134.798 104.863 135.176 105.359C135.559 105.856 136.069 106.104 136.707 106.104C137.35 106.104 137.86 105.854 138.238 105.353C138.617 104.847 138.806 104.14 138.806 103.233C138.806 102.422 138.612 101.766 138.225 101.265C137.842 100.759 137.331 100.506 136.693 100.506C136.069 100.506 135.565 100.754 135.183 101.251C134.8 101.748 134.608 102.459 134.608 103.384ZM142.846 99.6035L142.88 100.424C143.422 99.7858 144.154 99.4668 145.074 99.4668C146.109 99.4668 146.813 99.8633 147.187 100.656C147.433 100.301 147.752 100.014 148.144 99.7949C148.54 99.5762 149.007 99.4668 149.545 99.4668C151.167 99.4668 151.992 100.326 152.02 102.044V107H150.755V102.119C150.755 101.59 150.634 101.196 150.393 100.937C150.151 100.672 149.745 100.54 149.176 100.54C148.706 100.54 148.317 100.681 148.007 100.964C147.697 101.242 147.517 101.618 147.467 102.092V107H146.195V102.153C146.195 101.078 145.669 100.54 144.616 100.54C143.787 100.54 143.219 100.893 142.914 101.6V107H141.649V99.6035H142.846ZM159.122 97.8125V99.6035H160.503V100.581H159.122V105.168C159.122 105.464 159.184 105.688 159.307 105.838C159.43 105.984 159.639 106.057 159.936 106.057C160.081 106.057 160.282 106.029 160.537 105.975V107C160.204 107.091 159.881 107.137 159.566 107.137C159.001 107.137 158.575 106.966 158.288 106.624C158.001 106.282 157.857 105.797 157.857 105.168V100.581H156.511V99.6035H157.857V97.8125H159.122ZM161.515 103.233C161.515 102.509 161.656 101.857 161.938 101.278C162.226 100.7 162.622 100.253 163.128 99.9385C163.638 99.624 164.219 99.4668 164.871 99.4668C165.878 99.4668 166.692 99.8154 167.312 100.513C167.936 101.21 168.248 102.137 168.248 103.295V103.384C168.248 104.104 168.109 104.751 167.831 105.325C167.558 105.895 167.163 106.339 166.648 106.658C166.138 106.977 165.55 107.137 164.885 107.137C163.882 107.137 163.069 106.788 162.444 106.091C161.825 105.394 161.515 104.471 161.515 103.322V103.233ZM162.786 103.384C162.786 104.204 162.975 104.863 163.354 105.359C163.736 105.856 164.247 106.104 164.885 106.104C165.527 106.104 166.038 105.854 166.416 105.353C166.794 104.847 166.983 104.14 166.983 103.233C166.983 102.422 166.79 101.766 166.402 101.265C166.02 100.759 165.509 100.506 164.871 100.506C164.247 100.506 163.743 100.754 163.36 101.251C162.978 101.748 162.786 102.459 162.786 103.384ZM177.873 107C177.8 106.854 177.741 106.594 177.695 106.221C177.107 106.831 176.406 107.137 175.59 107.137C174.861 107.137 174.261 106.932 173.792 106.521C173.327 106.107 173.095 105.583 173.095 104.949C173.095 104.179 173.386 103.582 173.97 103.158C174.558 102.73 175.382 102.516 176.444 102.516H177.675V101.935C177.675 101.493 177.543 101.142 177.278 100.882C177.014 100.618 176.624 100.485 176.109 100.485C175.658 100.485 175.28 100.599 174.975 100.827C174.669 101.055 174.517 101.331 174.517 101.654H173.245C173.245 101.285 173.375 100.93 173.635 100.588C173.899 100.242 174.255 99.9681 174.701 99.7676C175.152 99.5671 175.647 99.4668 176.185 99.4668C177.037 99.4668 177.704 99.681 178.188 100.109C178.671 100.533 178.921 101.119 178.939 101.866V105.271C178.939 105.95 179.026 106.49 179.199 106.891V107H177.873ZM175.774 106.036C176.171 106.036 176.547 105.934 176.902 105.729C177.258 105.523 177.515 105.257 177.675 104.929V103.411H176.684C175.134 103.411 174.359 103.865 174.359 104.771C174.359 105.168 174.492 105.478 174.756 105.701C175.02 105.924 175.36 106.036 175.774 106.036ZM183.889 106.104C184.34 106.104 184.734 105.968 185.071 105.694C185.409 105.421 185.595 105.079 185.632 104.669H186.828C186.805 105.093 186.66 105.496 186.391 105.879C186.122 106.262 185.762 106.567 185.311 106.795C184.864 107.023 184.39 107.137 183.889 107.137C182.882 107.137 182.079 106.802 181.482 106.132C180.89 105.457 180.594 104.537 180.594 103.37V103.158C180.594 102.438 180.726 101.798 180.99 101.237C181.255 100.677 181.633 100.242 182.125 99.9316C182.622 99.6217 183.207 99.4668 183.882 99.4668C184.711 99.4668 185.399 99.7152 185.946 100.212C186.498 100.709 186.792 101.354 186.828 102.146H185.632C185.595 101.668 185.413 101.276 185.085 100.971C184.761 100.661 184.36 100.506 183.882 100.506C183.239 100.506 182.74 100.738 182.385 101.203C182.034 101.663 181.858 102.331 181.858 103.206V103.445C181.858 104.298 182.034 104.954 182.385 105.414C182.736 105.874 183.237 106.104 183.889 106.104ZM191.217 106.104C191.668 106.104 192.062 105.968 192.399 105.694C192.737 105.421 192.924 105.079 192.96 104.669H194.156C194.133 105.093 193.988 105.496 193.719 105.879C193.45 106.262 193.09 106.567 192.639 106.795C192.192 107.023 191.718 107.137 191.217 107.137C190.21 107.137 189.408 106.802 188.811 106.132C188.218 105.457 187.922 104.537 187.922 103.37V103.158C187.922 102.438 188.054 101.798 188.318 101.237C188.583 100.677 188.961 100.242 189.453 99.9316C189.95 99.6217 190.535 99.4668 191.21 99.4668C192.039 99.4668 192.728 99.7152 193.274 100.212C193.826 100.709 194.12 101.354 194.156 102.146H192.96C192.924 101.668 192.741 101.276 192.413 100.971C192.09 100.661 191.688 100.506 191.21 100.506C190.567 100.506 190.068 100.738 189.713 101.203C189.362 101.663 189.187 102.331 189.187 103.206V103.445C189.187 104.298 189.362 104.954 189.713 105.414C190.064 105.874 190.565 106.104 191.217 106.104ZM198.545 106.104C198.996 106.104 199.39 105.968 199.728 105.694C200.065 105.421 200.252 105.079 200.288 104.669H201.484C201.462 105.093 201.316 105.496 201.047 105.879C200.778 106.262 200.418 106.567 199.967 106.795C199.52 107.023 199.046 107.137 198.545 107.137C197.538 107.137 196.736 106.802 196.139 106.132C195.546 105.457 195.25 104.537 195.25 103.37V103.158C195.25 102.438 195.382 101.798 195.646 101.237C195.911 100.677 196.289 100.242 196.781 99.9316C197.278 99.6217 197.864 99.4668 198.538 99.4668C199.368 99.4668 200.056 99.7152 200.603 100.212C201.154 100.709 201.448 101.354 201.484 102.146H200.288C200.252 101.668 200.069 101.276 199.741 100.971C199.418 100.661 199.017 100.506 198.538 100.506C197.896 100.506 197.396 100.738 197.041 101.203C196.69 101.663 196.515 102.331 196.515 103.206V103.445C196.515 104.298 196.69 104.954 197.041 105.414C197.392 105.874 197.893 106.104 198.545 106.104ZM205.976 107.137C204.973 107.137 204.157 106.809 203.528 106.152C202.899 105.492 202.585 104.61 202.585 103.507V103.274C202.585 102.541 202.724 101.887 203.002 101.312C203.285 100.734 203.676 100.283 204.178 99.959C204.684 99.6309 205.23 99.4668 205.818 99.4668C206.78 99.4668 207.527 99.7835 208.061 100.417C208.594 101.05 208.86 101.957 208.86 103.138V103.664H203.85C203.868 104.393 204.08 104.983 204.485 105.435C204.896 105.881 205.415 106.104 206.044 106.104C206.491 106.104 206.869 106.013 207.179 105.831C207.489 105.649 207.76 105.407 207.992 105.106L208.765 105.708C208.145 106.66 207.215 107.137 205.976 107.137ZM205.818 100.506C205.308 100.506 204.88 100.693 204.533 101.066C204.187 101.436 203.973 101.955 203.891 102.625H207.596V102.529C207.559 101.887 207.386 101.39 207.076 101.039C206.766 100.684 206.347 100.506 205.818 100.506ZM214.637 105.038C214.637 104.696 214.507 104.432 214.247 104.245C213.992 104.054 213.543 103.89 212.9 103.753C212.262 103.616 211.754 103.452 211.376 103.261C211.002 103.069 210.724 102.841 210.542 102.577C210.364 102.313 210.275 101.998 210.275 101.634C210.275 101.028 210.531 100.515 211.041 100.096C211.556 99.6764 212.212 99.4668 213.01 99.4668C213.848 99.4668 214.527 99.6833 215.047 100.116C215.571 100.549 215.833 101.103 215.833 101.777H214.562C214.562 101.431 214.413 101.132 214.117 100.882C213.826 100.631 213.456 100.506 213.01 100.506C212.549 100.506 212.189 100.606 211.93 100.807C211.67 101.007 211.54 101.269 211.54 101.593C211.54 101.898 211.661 102.128 211.902 102.283C212.144 102.438 212.579 102.586 213.208 102.728C213.841 102.869 214.354 103.037 214.746 103.233C215.138 103.429 215.427 103.666 215.614 103.944C215.806 104.218 215.901 104.553 215.901 104.949C215.901 105.61 215.637 106.141 215.108 106.542C214.58 106.938 213.894 107.137 213.051 107.137C212.458 107.137 211.934 107.032 211.479 106.822C211.023 106.613 210.665 106.321 210.405 105.947C210.15 105.569 210.022 105.161 210.022 104.724H211.287C211.31 105.147 211.479 105.485 211.793 105.735C212.112 105.981 212.531 106.104 213.051 106.104C213.529 106.104 213.912 106.009 214.199 105.817C214.491 105.621 214.637 105.362 214.637 105.038ZM221.855 105.038C221.855 104.696 221.726 104.432 221.466 104.245C221.211 104.054 220.762 103.89 220.119 103.753C219.481 103.616 218.973 103.452 218.595 103.261C218.221 103.069 217.943 102.841 217.761 102.577C217.583 102.313 217.494 101.998 217.494 101.634C217.494 101.028 217.749 100.515 218.26 100.096C218.775 99.6764 219.431 99.4668 220.229 99.4668C221.067 99.4668 221.746 99.6833 222.266 100.116C222.79 100.549 223.052 101.103 223.052 101.777H221.78C221.78 101.431 221.632 101.132 221.336 100.882C221.044 100.631 220.675 100.506 220.229 100.506C219.768 100.506 219.408 100.606 219.148 100.807C218.889 101.007 218.759 101.269 218.759 101.593C218.759 101.898 218.88 102.128 219.121 102.283C219.363 102.438 219.798 102.586 220.427 102.728C221.06 102.869 221.573 103.037 221.965 103.233C222.357 103.429 222.646 103.666 222.833 103.944C223.024 104.218 223.12 104.553 223.12 104.949C223.12 105.61 222.856 106.141 222.327 106.542C221.799 106.938 221.113 107.137 220.27 107.137C219.677 107.137 219.153 107.032 218.697 106.822C218.242 106.613 217.884 106.321 217.624 105.947C217.369 105.569 217.241 105.161 217.241 104.724H218.506C218.529 105.147 218.697 105.485 219.012 105.735C219.331 105.981 219.75 106.104 220.27 106.104C220.748 106.104 221.131 106.009 221.418 105.817C221.71 105.621 221.855 105.362 221.855 105.038ZM230.66 105.147L232.383 99.6035H233.736L230.763 108.142C230.302 109.372 229.571 109.987 228.568 109.987L228.329 109.967L227.857 109.878V108.853L228.199 108.88C228.628 108.88 228.96 108.793 229.197 108.62C229.439 108.447 229.637 108.13 229.792 107.67L230.072 106.918L227.434 99.6035H228.814L230.66 105.147ZM234.427 103.233C234.427 102.509 234.568 101.857 234.851 101.278C235.138 100.7 235.534 100.253 236.04 99.9385C236.55 99.624 237.132 99.4668 237.783 99.4668C238.79 99.4668 239.604 99.8154 240.224 100.513C240.848 101.21 241.16 102.137 241.16 103.295V103.384C241.16 104.104 241.021 104.751 240.743 105.325C240.47 105.895 240.076 106.339 239.561 106.658C239.05 106.977 238.462 107.137 237.797 107.137C236.794 107.137 235.981 106.788 235.356 106.091C234.737 105.394 234.427 104.471 234.427 103.322V103.233ZM235.698 103.384C235.698 104.204 235.887 104.863 236.266 105.359C236.648 105.856 237.159 106.104 237.797 106.104C238.439 106.104 238.95 105.854 239.328 105.353C239.706 104.847 239.896 104.14 239.896 103.233C239.896 102.422 239.702 101.766 239.314 101.265C238.932 100.759 238.421 100.506 237.783 100.506C237.159 100.506 236.655 100.754 236.272 101.251C235.89 101.748 235.698 102.459 235.698 103.384ZM247.312 106.269C246.82 106.847 246.098 107.137 245.146 107.137C244.357 107.137 243.756 106.909 243.341 106.453C242.931 105.993 242.723 105.314 242.719 104.416V99.6035H243.983V104.382C243.983 105.503 244.439 106.063 245.351 106.063C246.317 106.063 246.959 105.703 247.278 104.983V99.6035H248.543V107H247.34L247.312 106.269ZM254.046 100.738C253.854 100.706 253.647 100.69 253.424 100.69C252.594 100.69 252.032 101.044 251.735 101.75V107H250.471V99.6035H251.701L251.722 100.458C252.136 99.7972 252.724 99.4668 253.485 99.4668C253.731 99.4668 253.918 99.4987 254.046 99.5625V100.738ZM39.9238 128.104C40.375 128.104 40.7692 127.968 41.1064 127.694C41.4437 127.421 41.6305 127.079 41.667 126.669H42.8633C42.8405 127.093 42.6947 127.496 42.4258 127.879C42.1569 128.262 41.7969 128.567 41.3457 128.795C40.8991 129.023 40.4251 129.137 39.9238 129.137C38.9167 129.137 38.1146 128.802 37.5176 128.132C36.9251 127.457 36.6289 126.537 36.6289 125.37V125.158C36.6289 124.438 36.7611 123.798 37.0254 123.237C37.2897 122.677 37.668 122.242 38.1602 121.932C38.6569 121.622 39.2425 121.467 39.917 121.467C40.7464 121.467 41.4346 121.715 41.9814 122.212C42.5329 122.709 42.8268 123.354 42.8633 124.146H41.667C41.6305 123.668 41.4482 123.276 41.1201 122.971C40.7965 122.661 40.3955 122.506 39.917 122.506C39.2744 122.506 38.7754 122.738 38.4199 123.203C38.069 123.663 37.8936 124.331 37.8936 125.206V125.445C37.8936 126.298 38.069 126.954 38.4199 127.414C38.7708 127.874 39.2721 128.104 39.9238 128.104ZM43.9502 125.233C43.9502 124.509 44.0915 123.857 44.374 123.278C44.6611 122.7 45.0576 122.253 45.5635 121.938C46.0739 121.624 46.6549 121.467 47.3066 121.467C48.3138 121.467 49.1273 121.815 49.7471 122.513C50.3714 123.21 50.6836 124.137 50.6836 125.295V125.384C50.6836 126.104 50.5446 126.751 50.2666 127.325C49.9932 127.895 49.599 128.339 49.084 128.658C48.5736 128.977 47.9857 129.137 47.3203 129.137C46.3177 129.137 45.5042 128.788 44.8799 128.091C44.2601 127.394 43.9502 126.471 43.9502 125.322V125.233ZM45.2217 125.384C45.2217 126.204 45.4108 126.863 45.7891 127.359C46.1719 127.856 46.6823 128.104 47.3203 128.104C47.9629 128.104 48.4733 127.854 48.8516 127.353C49.2298 126.847 49.4189 126.14 49.4189 125.233C49.4189 124.422 49.2253 123.766 48.8379 123.265C48.4551 122.759 47.9447 122.506 47.3066 122.506C46.6823 122.506 46.1787 122.754 45.7959 123.251C45.4131 123.748 45.2217 124.459 45.2217 125.384ZM53.459 121.604L53.4932 122.424C54.0355 121.786 54.7669 121.467 55.6875 121.467C56.722 121.467 57.4261 121.863 57.7998 122.656C58.0459 122.301 58.3649 122.014 58.7568 121.795C59.1533 121.576 59.6204 121.467 60.1582 121.467C61.7806 121.467 62.6055 122.326 62.6328 124.044V129H61.3682V124.119C61.3682 123.59 61.2474 123.196 61.0059 122.937C60.7643 122.672 60.3587 122.54 59.7891 122.54C59.3197 122.54 58.93 122.681 58.6201 122.964C58.3102 123.242 58.1302 123.618 58.0801 124.092V129H56.8086V124.153C56.8086 123.078 56.2822 122.54 55.2295 122.54C54.4001 122.54 53.8327 122.893 53.5273 123.6V129H52.2627V121.604H53.459ZM70.7949 125.384C70.7949 126.509 70.5374 127.416 70.0225 128.104C69.5075 128.793 68.8102 129.137 67.9307 129.137C67.0329 129.137 66.3265 128.852 65.8115 128.282V131.844H64.5469V121.604H65.7021L65.7637 122.424C66.2786 121.786 66.9941 121.467 67.9102 121.467C68.7988 121.467 69.5007 121.802 70.0156 122.472C70.5352 123.142 70.7949 124.074 70.7949 125.268V125.384ZM69.5303 125.24C69.5303 124.406 69.3525 123.748 68.9971 123.265C68.6416 122.782 68.154 122.54 67.5342 122.54C66.7686 122.54 66.1943 122.88 65.8115 123.559V127.093C66.1898 127.767 66.7686 128.104 67.5479 128.104C68.154 128.104 68.6348 127.865 68.9902 127.387C69.3503 126.904 69.5303 126.188 69.5303 125.24ZM76.9746 128.269C76.4824 128.847 75.7601 129.137 74.8076 129.137C74.0192 129.137 73.4176 128.909 73.0029 128.453C72.5928 127.993 72.3854 127.314 72.3809 126.416V121.604H73.6455V126.382C73.6455 127.503 74.1012 128.063 75.0127 128.063C75.9788 128.063 76.6214 127.703 76.9404 126.983V121.604H78.2051V129H77.002L76.9746 128.269ZM81.8486 119.812V121.604H83.2295V122.581H81.8486V127.168C81.8486 127.464 81.9102 127.688 82.0332 127.838C82.1562 127.984 82.3659 128.057 82.6621 128.057C82.8079 128.057 83.0085 128.029 83.2637 127.975V129C82.931 129.091 82.6074 129.137 82.293 129.137C81.7279 129.137 81.3018 128.966 81.0146 128.624C80.7275 128.282 80.584 127.797 80.584 127.168V122.581H79.2373V121.604H80.584V119.812H81.8486ZM87.7822 129.137C86.7796 129.137 85.9639 128.809 85.335 128.152C84.7061 127.492 84.3916 126.61 84.3916 125.507V125.274C84.3916 124.541 84.5306 123.887 84.8086 123.312C85.0911 122.734 85.4831 122.283 85.9844 121.959C86.4902 121.631 87.0371 121.467 87.625 121.467C88.5866 121.467 89.334 121.784 89.8672 122.417C90.4004 123.05 90.667 123.957 90.667 125.138V125.664H85.6562C85.6745 126.393 85.8864 126.983 86.292 127.435C86.7021 127.881 87.2217 128.104 87.8506 128.104C88.2972 128.104 88.6755 128.013 88.9854 127.831C89.2952 127.649 89.5664 127.407 89.7988 127.106L90.5713 127.708C89.9515 128.66 89.0218 129.137 87.7822 129.137ZM87.625 122.506C87.1146 122.506 86.6862 122.693 86.3398 123.066C85.9935 123.436 85.7793 123.955 85.6973 124.625H89.4023V124.529C89.3659 123.887 89.1927 123.39 88.8828 123.039C88.5729 122.684 88.1536 122.506 87.625 122.506ZM95.7119 122.738C95.5205 122.706 95.3132 122.69 95.0898 122.69C94.2604 122.69 93.6976 123.044 93.4014 123.75V129H92.1367V121.604H93.3672L93.3877 122.458C93.8024 121.797 94.3903 121.467 95.1514 121.467C95.3975 121.467 95.5843 121.499 95.7119 121.562V122.738ZM97.0791 121.85L96.3613 121.357C96.7852 120.765 97.0039 120.141 97.0176 119.484V118.5H98.2686V119.389C98.264 119.844 98.1501 120.3 97.9268 120.756C97.708 121.207 97.4255 121.572 97.0791 121.85ZM103.334 127.038C103.334 126.696 103.204 126.432 102.944 126.245C102.689 126.054 102.24 125.89 101.598 125.753C100.96 125.616 100.451 125.452 100.073 125.261C99.6995 125.069 99.4215 124.841 99.2393 124.577C99.0615 124.313 98.9727 123.998 98.9727 123.634C98.9727 123.028 99.2279 122.515 99.7383 122.096C100.253 121.676 100.91 121.467 101.707 121.467C102.546 121.467 103.225 121.683 103.744 122.116C104.268 122.549 104.53 123.103 104.53 123.777H103.259C103.259 123.431 103.111 123.132 102.814 122.882C102.523 122.631 102.154 122.506 101.707 122.506C101.247 122.506 100.887 122.606 100.627 122.807C100.367 123.007 100.237 123.269 100.237 123.593C100.237 123.898 100.358 124.128 100.6 124.283C100.841 124.438 101.276 124.586 101.905 124.728C102.539 124.869 103.051 125.037 103.443 125.233C103.835 125.429 104.125 125.666 104.312 125.944C104.503 126.218 104.599 126.553 104.599 126.949C104.599 127.61 104.334 128.141 103.806 128.542C103.277 128.938 102.591 129.137 101.748 129.137C101.156 129.137 100.632 129.032 100.176 128.822C99.7201 128.613 99.3623 128.321 99.1025 127.947C98.8473 127.569 98.7197 127.161 98.7197 126.724H99.9844C100.007 127.147 100.176 127.485 100.49 127.735C100.809 127.981 101.229 128.104 101.748 128.104C102.227 128.104 102.609 128.009 102.896 127.817C103.188 127.621 103.334 127.362 103.334 127.038ZM110.908 121.604L110.942 122.424C111.485 121.786 112.216 121.467 113.137 121.467C114.171 121.467 114.875 121.863 115.249 122.656C115.495 122.301 115.814 122.014 116.206 121.795C116.603 121.576 117.07 121.467 117.607 121.467C119.23 121.467 120.055 122.326 120.082 124.044V129H118.817V124.119C118.817 123.59 118.697 123.196 118.455 122.937C118.214 122.672 117.808 122.54 117.238 122.54C116.769 122.54 116.379 122.681 116.069 122.964C115.759 123.242 115.579 123.618 115.529 124.092V129H114.258V124.153C114.258 123.078 113.731 122.54 112.679 122.54C111.849 122.54 111.282 122.893 110.977 123.6V129H109.712V121.604H110.908ZM123.37 129H122.105V121.604H123.37V129ZM122.003 119.642C122.003 119.437 122.064 119.263 122.188 119.122C122.315 118.981 122.502 118.91 122.748 118.91C122.994 118.91 123.181 118.981 123.309 119.122C123.436 119.263 123.5 119.437 123.5 119.642C123.5 119.847 123.436 120.018 123.309 120.154C123.181 120.291 122.994 120.359 122.748 120.359C122.502 120.359 122.315 120.291 122.188 120.154C122.064 120.018 122.003 119.847 122.003 119.642ZM128.367 128.104C128.818 128.104 129.213 127.968 129.55 127.694C129.887 127.421 130.074 127.079 130.11 126.669H131.307C131.284 127.093 131.138 127.496 130.869 127.879C130.6 128.262 130.24 128.567 129.789 128.795C129.342 129.023 128.868 129.137 128.367 129.137C127.36 129.137 126.558 128.802 125.961 128.132C125.368 127.457 125.072 126.537 125.072 125.37V125.158C125.072 124.438 125.204 123.798 125.469 123.237C125.733 122.677 126.111 122.242 126.604 121.932C127.1 121.622 127.686 121.467 128.36 121.467C129.19 121.467 129.878 121.715 130.425 122.212C130.976 122.709 131.27 123.354 131.307 124.146H130.11C130.074 123.668 129.892 123.276 129.563 122.971C129.24 122.661 128.839 122.506 128.36 122.506C127.718 122.506 127.219 122.738 126.863 123.203C126.512 123.663 126.337 124.331 126.337 125.206V125.445C126.337 126.298 126.512 126.954 126.863 127.414C127.214 127.874 127.715 128.104 128.367 128.104ZM136.304 122.738C136.112 122.706 135.905 122.69 135.682 122.69C134.852 122.69 134.289 123.044 133.993 123.75V129H132.729V121.604H133.959L133.979 122.458C134.394 121.797 134.982 121.467 135.743 121.467C135.989 121.467 136.176 121.499 136.304 121.562V122.738ZM137.001 125.233C137.001 124.509 137.142 123.857 137.425 123.278C137.712 122.7 138.108 122.253 138.614 121.938C139.125 121.624 139.706 121.467 140.357 121.467C141.365 121.467 142.178 121.815 142.798 122.513C143.422 123.21 143.734 124.137 143.734 125.295V125.384C143.734 126.104 143.595 126.751 143.317 127.325C143.044 127.895 142.65 128.339 142.135 128.658C141.624 128.977 141.036 129.137 140.371 129.137C139.368 129.137 138.555 128.788 137.931 128.091C137.311 127.394 137.001 126.471 137.001 125.322V125.233ZM138.272 125.384C138.272 126.204 138.462 126.863 138.84 127.359C139.223 127.856 139.733 128.104 140.371 128.104C141.014 128.104 141.524 127.854 141.902 127.353C142.281 126.847 142.47 126.14 142.47 125.233C142.47 124.422 142.276 123.766 141.889 123.265C141.506 122.759 140.995 122.506 140.357 122.506C139.733 122.506 139.229 122.754 138.847 123.251C138.464 123.748 138.272 124.459 138.272 125.384ZM151.568 125.384C151.568 126.509 151.311 127.416 150.796 128.104C150.281 128.793 149.584 129.137 148.704 129.137C147.806 129.137 147.1 128.852 146.585 128.282V131.844H145.32V121.604H146.476L146.537 122.424C147.052 121.786 147.768 121.467 148.684 121.467C149.572 121.467 150.274 121.802 150.789 122.472C151.309 123.142 151.568 124.074 151.568 125.268V125.384ZM150.304 125.24C150.304 124.406 150.126 123.748 149.771 123.265C149.415 122.782 148.927 122.54 148.308 122.54C147.542 122.54 146.968 122.88 146.585 123.559V127.093C146.963 127.767 147.542 128.104 148.321 128.104C148.927 128.104 149.408 127.865 149.764 127.387C150.124 126.904 150.304 126.188 150.304 125.24ZM154.446 122.499C155.007 121.811 155.736 121.467 156.634 121.467C158.197 121.467 158.985 122.349 158.999 124.112V129H157.734V124.105C157.73 123.572 157.607 123.178 157.365 122.923C157.128 122.668 156.757 122.54 156.251 122.54C155.841 122.54 155.481 122.649 155.171 122.868C154.861 123.087 154.619 123.374 154.446 123.729V129H153.182V118.5H154.446V122.499ZM160.558 125.233C160.558 124.509 160.699 123.857 160.981 123.278C161.269 122.7 161.665 122.253 162.171 121.938C162.681 121.624 163.262 121.467 163.914 121.467C164.921 121.467 165.735 121.815 166.354 122.513C166.979 123.21 167.291 124.137 167.291 125.295V125.384C167.291 126.104 167.152 126.751 166.874 127.325C166.601 127.895 166.206 128.339 165.691 128.658C165.181 128.977 164.593 129.137 163.928 129.137C162.925 129.137 162.112 128.788 161.487 128.091C160.868 127.394 160.558 126.471 160.558 125.322V125.233ZM161.829 125.384C161.829 126.204 162.018 126.863 162.396 127.359C162.779 127.856 163.29 128.104 163.928 128.104C164.57 128.104 165.081 127.854 165.459 127.353C165.837 126.847 166.026 126.14 166.026 125.233C166.026 124.422 165.833 123.766 165.445 123.265C165.062 122.759 164.552 122.506 163.914 122.506C163.29 122.506 162.786 122.754 162.403 123.251C162.021 123.748 161.829 124.459 161.829 125.384ZM170.073 121.604L170.114 122.533C170.679 121.822 171.418 121.467 172.329 121.467C173.892 121.467 174.681 122.349 174.694 124.112V129H173.43V124.105C173.425 123.572 173.302 123.178 173.061 122.923C172.824 122.668 172.452 122.54 171.946 122.54C171.536 122.54 171.176 122.649 170.866 122.868C170.556 123.087 170.315 123.374 170.142 123.729V129H168.877V121.604H170.073ZM179.671 129.137C178.668 129.137 177.853 128.809 177.224 128.152C176.595 127.492 176.28 126.61 176.28 125.507V125.274C176.28 124.541 176.419 123.887 176.697 123.312C176.98 122.734 177.372 122.283 177.873 121.959C178.379 121.631 178.926 121.467 179.514 121.467C180.475 121.467 181.223 121.784 181.756 122.417C182.289 123.05 182.556 123.957 182.556 125.138V125.664H177.545C177.563 126.393 177.775 126.983 178.181 127.435C178.591 127.881 179.11 128.104 179.739 128.104C180.186 128.104 180.564 128.013 180.874 127.831C181.184 127.649 181.455 127.407 181.688 127.106L182.46 127.708C181.84 128.66 180.91 129.137 179.671 129.137ZM179.514 122.506C179.003 122.506 178.575 122.693 178.229 123.066C177.882 123.436 177.668 123.955 177.586 124.625H181.291V124.529C181.255 123.887 181.081 123.39 180.771 123.039C180.462 122.684 180.042 122.506 179.514 122.506Z" fill="white"/>
</g>
<defs>
<filter id="filter0_d" x="0" y="0" width="314" height="184" filterUnits="userSpaceOnUse" color-interpolation-filters="sRGB">
<feFlood flood-opacity="0" result="BackgroundImageFix"/>
<feColorMatrix in="SourceAlpha" type="matrix" values="0 0 0 0 0 0 0 0 0 0 0 0 0 0 0 0 0 0 127 0"/>
<feOffset dy="6"/>
<feGaussianBlur stdDeviation="10"/>
<feColorMatrix type="matrix" values="0 0 0 0 0 0 0 0 0 0 0 0 0 0 0 0 0 0 0.2 0"/>
<feBlend mode="normal" in2="BackgroundImageFix" result="effect1_dropShadow"/>
<feBlend mode="normal" in="SourceGraphic" in2="effect1_dropShadow" result="shape"/>
</filter>
<filter id="filter1_d" x="133" y="6.82837" width="48" height="39.1716" filterUnits="userSpaceOnUse" color-interpolation-filters="sRGB">
<feFlood flood-opacity="0" result="BackgroundImageFix"/>
<feColorMatrix in="SourceAlpha" type="matrix" values="0 0 0 0 0 0 0 0 0 0 0 0 0 0 0 0 0 0 127 0"/>
<feOffset dy="8"/>
<feGaussianBlur stdDeviation="8"/>
<feColorMatrix type="matrix" values="0 0 0 0 0 0 0 0 0 0 0 0 0 0 0 0 0 0 0.17 0"/>
<feBlend mode="normal" in2="BackgroundImageFix" result="effect1_dropShadow"/>
<feBlend mode="normal" in="SourceGraphic" in2="effect1_dropShadow" result="shape"/>
</filter>
<clipPath id="clip0">
<rect width="274" height="144" fill="white" transform="translate(20 14)"/>
</clipPath>
<clipPath id="clip1">
<rect width="88" height="8" fill="white" transform="translate(201 22) rotate(-180)"/>
</clipPath>
</defs>
</svg>
